<?xml version="1.0" encoding="UTF-8" standalone="no"?>
<svg
   xmlns:dc="http://purl.org/dc/elements/1.1/"
   xmlns:cc="http://creativecommons.org/ns#"
   xmlns:rdf="http://www.w3.org/1999/02/22-rdf-syntax-ns#"
   xmlns:svg="http://www.w3.org/2000/svg"
   xmlns="http://www.w3.org/2000/svg"
   xmlns:xlink="http://www.w3.org/1999/xlink"
   xmlns:sodipodi="http://sodipodi.sourceforge.net/DTD/sodipodi-0.dtd"
   xmlns:inkscape="http://www.inkscape.org/namespaces/inkscape"
   width="170mm"
   height="120mm"
   viewBox="0 0 170 120"
   version="1.1"
   id="svg8"
   inkscape:version="1.0.1 (3bc2e813f5, 2020-09-07)"
   sodipodi:docname="company_logo.svg">
  <defs
     id="defs2">
    <linearGradient
       inkscape:collect="always"
       id="linearGradient3658">
      <stop
         style="stop-color:#050507;stop-opacity:1"
         offset="0"
         id="stop3654" />
      <stop
         style="stop-color:#8f94f7;stop-opacity:1"
         offset="1"
         id="stop3656" />
    </linearGradient>
    <linearGradient
       inkscape:collect="always"
       xlink:href="#linearGradient3658"
       id="linearGradient3662"
       gradientUnits="userSpaceOnUse"
       x1="85.895836"
       y1="80.028671"
       x2="86.987633"
       y2="114.72498" />
  </defs>
  <sodipodi:namedview
     id="base"
     pagecolor="#ffffff"
     bordercolor="#666666"
     borderopacity="1.0"
     inkscape:pageopacity="0"
     inkscape:pageshadow="2"
     inkscape:zoom="0.10263363"
     inkscape:cx="441.10302"
     inkscape:cy="289.76143"
     inkscape:document-units="mm"
     inkscape:current-layer="g861"
     inkscape:document-rotation="0"
     showgrid="false"
     inkscape:window-width="1440"
     inkscape:window-height="837"
     inkscape:window-x="-8"
     inkscape:window-y="-8"
     inkscape:window-maximized="1"
     inkscape:pagecheckerboard="false"
     borderlayer="false"
     width="298mm"
     height="210mm"
     showborder="false"
     inkscape:showpageshadow="false" />
  <metadata
     id="metadata5">
    <rdf:RDF>
      <cc:Work
         rdf:about="">
        <dc:format>image/svg+xml</dc:format>
        <dc:type
           rdf:resource="http://purl.org/dc/dcmitype/StillImage" />
        <dc:title></dc:title>
      </cc:Work>
    </rdf:RDF>
  </metadata>
  <g
     inkscape:label="Layer 1"
     inkscape:groupmode="layer"
     id="layer1"
     style="display:inline">
    <g
       id="g861"
       transform="translate(-5.9744624,-6.827957)">
      <path
         style="fill:#cee9fd;fill-opacity:1;stroke-width:0.191946"
         d="m 56.36502,120.52547 c -2.82876,-1.42093 -4.8944,-5.61212 -5.59395,-11.35014 -0.30825,-2.52838 -0.1339,-11.52299 0.27799,-14.34169 0.17369,-1.18859 0.27735,-2.20256 0.23036,-2.25326 -0.047,-0.0507 -1.48515,0.007 -3.19591,0.12902 -3.27446,0.23285 -5.08368,0.16433 -8.57381,-0.32475 C 30.70039,91.15019 22.9645,86.73314 20.73352,81.6638 19.2081,78.19767 19.90807,74.2037 22.82971,69.70314 23.91199,68.03598 27.2771,64.2353 28.4224,63.38657 l 0.64676,-0.47928 -0.35683,0.59487 c -0.19626,0.32718 -0.67699,1.03264 -1.06829,1.5677 -1.09994,1.504 -2.66543,4.47096 -3.11612,5.90578 -0.57736,1.83804 -0.5822,3.97157 -0.0119,5.23319 1.35264,2.99224 5.17492,4.3367 12.31423,4.33145 10.80338,-0.008 19.2442,-2.37067 22.69235,-6.35196 0.87672,-1.01227 1.7868,-2.77658 1.7903,-3.47073 0.004,-0.8511 -4.24722,-6.15202 -7.30877,-9.1128 C 46.44605,54.29546 37.13702,49.21857 25.83534,46.24227 20.85903,44.93176 16.39215,44.19463 11.32946,43.84851 9.50005,43.72344 7.96169,43.57617 7.91087,43.52124 c -0.16872,-0.18236 1.23188,-1.34426 2.64965,-2.19807 5.74735,-3.4612 15.43557,-6.03988 22.66636,-6.03301 7.87948,0.007 16.63301,2.77839 27.51532,8.7099 2.48005,1.35178 4.55651,2.4067 4.61436,2.34428 0.0579,-0.0624 0.0179,-0.1759 -0.0887,-0.25218 C 64.54193,45.57282 59.87854,41.05281 58.82005,39.8426 52.48194,32.59598 48.45094,24.69904 46.81025,16.31478 46.3304,13.86269 45.98711,9.55882 46.27286,9.57752 c 0.0915,0.006 1.2058,1.71951 2.47622,3.80782 8.5968,14.13138 18.94289,21.96578 28.03144,21.22635 4.38472,-0.35674 7.39078,-1.83116 12.60768,-6.18383 3.29779,-2.75149 4.82981,-3.86738 7.63293,-5.55968 8.7143,-5.261 18.7836,-8.27261 30.45076,-9.10745 5.45587,-0.39039 11.8402,0.64745 17.1027,2.78022 11.28624,4.57406 20.44477,14.381 24.91353,26.67737 3.83921,10.56411 3.86753,23.25714 0.0758,33.98074 -1.4324,4.05105 -4.37287,9.41814 -7.02225,12.81737 -5.38782,6.91268 -11.95562,11.76738 -19.64292,14.5194 -4.67679,1.67427 -8.92958,2.32267 -15.25633,2.32606 l -3.98424,0.002 -0.77734,2.53063 c -2.45885,8.00475 -5.8322,11.9016 -10.0227,11.5781 -2.77797,-0.21446 -4.79943,-2.25336 -5.62509,-5.67362 -0.52495,-2.17454 -0.26843,-6.3717 0.53736,-8.79252 0.21745,-0.65325 0.23149,-0.87557 0.0593,-0.9391 -0.28261,-0.10429 -6.12577,-0.89667 -6.61217,-0.89667 -0.27029,0 -0.35817,0.13893 -0.35817,0.56625 0,0.31143 -0.16427,1.25924 -0.36504,2.10624 -1.19245,5.03053 -4.9563,8.22646 -10.15545,8.62307 -3.12774,0.2386 -6.14399,-0.5239 -8.28871,-2.09535 -1.20244,-0.88104 -1.78019,-1.61246 -2.52189,-3.19268 -1.12174,-2.38991 -1.3568,-6.36371 -0.54701,-9.24745 0.0903,-0.32156 -0.12072,-0.34892 -2.69155,-0.34892 -2.90153,0 -7.13406,0.39762 -9.55708,0.89783 -0.77373,0.15973 -1.43331,0.31904 -1.46574,0.35403 -0.0324,0.035 -0.31229,2.16766 -0.62192,4.73929 -0.87027,7.22788 -1.22422,9.25712 -1.88414,10.80187 -0.59202,1.38584 -1.60916,2.59553 -2.4842,2.95449 -0.91294,0.37451 -2.86249,0.22297 -3.91168,-0.30405 z m 58.03402,-5.66887 c 1.13687,-0.46637 2.55026,-2.77807 3.45683,-5.65394 0.85368,-2.70808 0.87522,-2.61536 -0.64265,-2.7665 -1.85733,-0.18495 -3.94629,-0.26926 -4.02104,-0.1623 -0.16217,0.23207 -0.69887,1.77432 -0.89923,2.58396 -0.35048,1.41633 -0.30795,4.35977 0.074,5.12412 0.49589,0.99226 1.1056,1.2547 2.03204,0.87465 z m -56.43519,-1.08186 c 0.11294,-0.14684 0.32947,-0.93189 0.48118,-1.74458 0.35424,-1.89754 1.06498,-7.97733 0.9474,-8.10419 -0.0493,-0.0532 -0.60942,0.0926 -1.24464,0.32405 -1.73951,0.63383 -1.708,0.6542 -1.58503,-1.02467 0.0582,-0.79504 0.23116,-1.82166 0.3843,-2.28139 0.212,-0.63647 0.23399,-1.00945 0.0922,-1.56351 -0.4355,-1.70179 0.40957,-3.41548 1.78222,-3.61408 1.16442,-0.16848 1.79022,-1.21197 2.05105,-3.42001 0.11252,-0.95249 0.1732,-1.77099 0.13486,-1.81889 -0.12091,-0.15107 -4.54516,1.06457 -4.77432,1.31182 -0.37813,0.40799 -1.02776,5.2186 -1.16795,8.64889 -0.26706,6.53452 0.40545,11.34579 1.85967,13.30429 0.24292,0.32717 0.78081,0.31799 1.03905,-0.0177 z m 33.98405,-4.22419 c 1.22418,-0.39225 2.42092,-1.38339 2.97466,-2.46362 0.53477,-1.04324 0.78096,-3.35334 0.37202,-3.4909 -0.3271,-0.11003 -9.59199,-1.87147 -10.69652,-2.03362 l -0.83155,-0.12207 v 2.89513 c 0,3.14862 0.0867,3.4553 1.23991,4.38427 1.34818,1.08603 4.84045,1.50402 6.94148,0.83081 z m 58.56106,-46.58749 c -0.059,-0.15905 -0.10278,-0.11181 -0.11164,0.12046 -0.008,0.21018 0.0357,0.32794 0.097,0.26169 0.0614,-0.0663 0.068,-0.23822 0.0146,-0.38215 z m -73.8106,-9.0817 c -0.53358,-0.0403 -1.4067,-0.0403 -1.94028,0 -0.53358,0.0403 -0.097,0.0732 0.97014,0.0732 1.06715,0 1.50372,-0.033 0.97014,-0.0732 z m 15.25668,-0.20148 c -1.59433,-0.0332 -4.25529,-0.0332 -5.91323,-1.5e-4 -1.65795,0.0331 -0.3535,0.0602 2.89878,0.0603 3.25227,8e-5 4.60878,-0.027 3.01445,-0.0601 z m 60.40295,-5.98184 c -0.0465,-0.1919 -0.0845,-0.0349 -0.0845,0.34891 0,0.38381 0.038,0.54082 0.0845,0.34892 0.0465,-0.19191 0.0465,-0.50593 0,-0.69783 z m -20.63727,-7.57472 c -0.35483,-0.0462 -0.70696,-0.18885 -0.78252,-0.31701 -0.0893,-0.15141 -0.13837,-0.15737 -0.14021,-0.017 -0.005,0.37091 0.22067,0.48294 0.90572,0.44993 l 0.66215,-0.0319 z m -1.4274,-4.79432 c -0.29489,-0.39311 -0.65602,-0.75508 -0.80251,-0.80437 -0.14649,-0.0493 -0.0421,0.10472 0.23188,0.34223 0.27403,0.23752 0.60665,0.75626 0.73915,1.15276 0.16075,0.48097 0.26201,0.60495 0.30428,0.37251 0.0349,-0.19161 -0.17792,-0.67002 -0.4728,-1.06313 z"
         id="path905" />
      <path
         style="fill:#eed0d0;fill-opacity:1;stroke-width:0.191946"
         d="m 56.69502,120.57874 c -2.27766,-0.94232 -4.31595,-4.11859 -5.27059,-8.21312 -1.05598,-4.52925 -1.06966,-11.83715 -0.0364,-19.45818 0.0323,-0.23797 -0.16709,-0.29277 -0.97579,-0.26823 -5.68645,0.17254 -8.75654,0.11391 -10.81011,-0.20643 -9.17417,-1.43113 -16.63239,-5.6878 -18.86858,-10.76898 -1.52542,-3.46613 -0.82545,-7.4601 2.09619,-11.96066 1.08228,-1.66716 4.44739,-5.46784 5.59269,-6.31657 l 0.64676,-0.47928 -0.35683,0.59487 c -0.19626,0.32718 -0.67699,1.03264 -1.06829,1.5677 -1.09994,1.504 -2.66543,4.47096 -3.11612,5.90578 -0.57736,1.83804 -0.5822,3.97157 -0.0119,5.23319 1.35264,2.99224 5.17492,4.3367 12.31423,4.33145 10.80338,-0.008 19.2442,-2.37067 22.69235,-6.35196 0.87672,-1.01227 1.7868,-2.77658 1.7903,-3.47073 0.004,-0.8511 -4.24722,-6.15202 -7.30877,-9.1128 C 46.44608,54.29546 37.13705,49.21857 25.83537,46.24227 20.85906,44.93176 16.39218,44.19463 11.32949,43.84851 9.50009,43.72344 7.96172,43.57617 7.91091,43.52124 c -0.16873,-0.18236 1.23188,-1.34426 2.64964,-2.19807 5.74736,-3.4612 15.43557,-6.03987 22.66636,-6.03301 7.87948,0.007 16.63301,2.77839 27.51532,8.7099 2.48005,1.35178 4.55651,2.4067 4.61436,2.34428 0.0579,-0.0624 0.0179,-0.1759 -0.0887,-0.25218 C 64.54196,45.57282 59.87857,41.05281 58.82008,39.8426 52.48197,32.59598 48.45097,24.699042 46.81028,16.314782 46.33043,13.862692 45.98714,9.5588316 46.27289,9.5775316 c 0.0915,0.006 1.2058,1.7195004 2.47622,3.8078104 8.5968,14.13138 18.94289,21.965778 28.03144,21.226348 4.38472,-0.35673 7.39078,-1.83115 12.60768,-6.183818 3.29779,-2.75149 4.82981,-3.86738 7.63293,-5.55969 8.7143,-5.261 18.7836,-8.2726 30.45076,-9.10744 5.45587,-0.3904 11.8402,0.64744 17.1027,2.78021 11.28624,4.57406 20.44477,14.381 24.91353,26.677368 3.83921,10.56411 3.86753,23.25714 0.0758,33.98074 -1.4324,4.05105 -4.37287,9.41814 -7.02225,12.81737 -5.38782,6.91268 -11.95562,11.76738 -19.64292,14.51941 -4.63788,1.66033 -7.57313,2.13279 -14.2968,2.30121 l -5.05739,0.12667 -0.87012,2.69163 c -1.07908,3.33802 -1.79285,5.02384 -2.8613,6.75792 -1.53686,2.49432 -3.43891,4.04355 -5.37181,4.37539 -3.88746,0.66738 -6.7377,-1.98123 -7.33755,-6.8185 -0.25709,-2.07315 -0.005,-4.92191 0.60927,-6.87303 0.22235,-0.70676 0.32643,-1.33438 0.2365,-1.42616 -0.18963,-0.19354 -6.86905,-1.10577 -7.00696,-0.95697 -0.0519,0.056 -0.17297,0.62289 -0.26903,1.25975 -0.60202,3.99102 -2.56127,6.97768 -5.61798,8.56399 -1.85871,0.9646 -3.34287,1.29199 -5.87259,1.29544 -3.23591,0.004 -5.29393,-0.62108 -7.29925,-2.21848 -2.91174,-2.31943 -3.9615,-6.66349 -2.89608,-11.9844 l 0.10979,-0.5483 h -2.79862 c -3.70875,0 -10.62182,0.80939 -11.07324,1.29646 -0.10697,0.11543 -0.29747,1.51034 -1.0448,7.65063 -0.60948,5.00773 -0.92828,6.62306 -1.5835,8.02353 -1.27236,2.71956 -3.3183,3.5952 -5.90232,2.52612 z m 58.75079,-6.48719 c 0.46426,-0.52088 1.1479,-1.5751 1.51922,-2.34271 0.80436,-1.66283 1.75528,-4.83765 1.5209,-5.07776 -0.22811,-0.23368 -4.9018,-0.57199 -5.26292,-0.38096 -0.46293,0.24488 -1.13231,2.69033 -1.23174,4.49995 -0.11265,2.05019 0.0299,2.88017 0.62601,3.64453 0.38318,0.49135 0.61218,0.60401 1.22774,0.60401 0.66107,0 0.86338,-0.11969 1.60079,-0.94706 z m -57.3021,-0.51869 c 0.43022,-0.9685 1.53721,-9.33563 1.27286,-9.62085 -0.0626,-0.0676 -0.63356,0.0665 -1.26878,0.29801 -0.63523,0.23146 -1.26354,0.42083 -1.39626,0.42083 -0.34352,0 -0.31163,-1.63306 0.0605,-3.09835 0.16707,-0.65783 0.2857,-1.778786 0.26574,-2.51098 -0.059,-2.16566 0.35311,-2.8283 2.01951,-3.24706 0.25409,-0.0639 0.73252,-0.50652 1.0632,-0.98371 0.48657,-0.70215 0.64187,-1.17775 0.81438,-2.49395 0.11724,-0.89449 0.15684,-1.68711 0.088,-1.76139 -0.15225,-0.16428 -4.48238,0.93669 -4.86203,1.23621 -0.16317,0.12874 -0.40752,1.08108 -0.61656,2.40302 -0.91104,5.761254 -0.96135,12.34641 -0.12117,15.86034 0.87003,3.6388 1.97661,5.08275 2.68063,3.49788 z m 34.18592,-4.08643 c 1.38853,-0.56926 2.1476,-1.26684 2.69705,-2.47857 0.56984,-1.25668 0.72781,-3.08334 0.28911,-3.34305 -0.25186,-0.14909 -8.70786,-1.80724 -10.73456,-2.10494 l -0.84838,-0.12462 -0.11641,2.26579 c -0.16023,3.11859 0.0817,4.11759 1.21509,5.01713 1.22568,0.9728 2.72455,1.3496 4.94634,1.24344 0.97604,-0.0466 1.94789,-0.22762 2.55176,-0.47518 z m 12.45739,-20.31736 c -0.36428,-1.0624 -0.48122,-1.85379 -0.55529,-3.7579 -0.16703,-4.29369 0.50392,-6.74162 2.47853,-9.04278 1.40522,-1.63762 2.74174,-2.55385 4.77644,-3.27443 2.51096,-0.88924 4.11846,-1.12602 7.64809,-1.12654 3.43944,-6e-4 4.47568,0.12174 6.82206,0.80485 2.66032,0.77451 3.35816,1.57544 3.35931,3.85557 7.4e-4,1.63338 -0.36323,2.58827 -1.11486,2.92418 -0.29439,0.13157 -0.57666,0.38658 -0.62728,0.56669 -0.0506,0.18011 -0.26153,2.16675 -0.46871,4.41476 -0.20717,2.24801 -0.4287,4.51348 -0.49229,5.03436 l -0.1156,0.94705 h 3.44239 c 1.89331,0 3.44239,-0.0357 3.44239,-0.0793 0,-0.0436 -0.20689,-0.46981 -0.45975,-0.94705 -0.44804,-0.84564 -0.4598,-0.9707 -0.46197,-4.91507 -0.002,-4.43491 0.0567,-4.73854 1.10827,-5.69328 0.31317,-0.28433 0.87746,-0.60496 1.25396,-0.71253 0.38393,-0.10968 3.5248,-0.19714 7.15215,-0.19915 l 6.46759,-0.004 0.16235,-0.59241 c 0.34831,-1.271 0.60407,-1.22645 -6.54572,-1.14016 -3.56698,0.043 -6.78496,0.005 -7.15107,-0.0837 -0.82616,-0.20104 -1.49041,-0.72031 -2.04366,-1.59758 -0.41638,-0.66025 -0.42426,-0.76615 -0.36957,-4.96617 0.053,-4.06941 0.0772,-4.32379 0.46801,-4.91493 0.82579,-1.24912 0.8362,-1.25054 9.61087,-1.30904 l 7.96331,-0.0531 0.0819,-0.70196 c 0.045,-0.38608 0.0505,-0.76313 0.0122,-0.83789 -0.0384,-0.0748 -3.65629,-0.13438 -8.03984,-0.13248 l -7.97011,0.003 -0.73892,-0.56535 c -1.36886,-1.04734 -1.44351,-1.38091 -1.38391,-6.18382 0.0574,-4.62702 0.0816,-4.73253 1.31532,-5.72634 0.48658,-0.39196 0.75927,-0.40376 9.50519,-0.41108 l 9.00424,-0.008 0.0563,-0.94705 0.0563,-0.94706 h -9.03743 -9.03742 l -0.6109,-0.4486 c -1.22175,-0.89718 -1.37756,-1.32305 -1.44571,-3.95159 l -0.0617,-2.37872 h -0.61589 c -0.33873,0 -0.65782,-0.11215 -0.70909,-0.24922 -0.0513,-0.13708 -0.0998,4.19356 -0.10779,9.62364 l -0.0146,9.87286 -0.4552,0.72279 c -0.84937,1.34866 -1.59141,1.56296 -5.41194,1.56296 -3.56218,0 -4.06553,-0.0982 -4.91954,-0.95974 -1.00504,-1.01391 -1.03977,-1.28133 -1.03977,-8.00596 v -6.18718 h -1.20113 -1.20112 l -0.003,4.03745 c -0.004,5.81213 -0.52584,7.67715 -2.8615,10.22534 -1.27383,1.38975 -2.69705,2.21526 -5.17407,3.00111 -0.9147,0.29019 -2.28676,0.73737 -3.04901,0.99374 -0.76225,0.25636 -3.09058,1.02197 -5.17407,1.70135 -2.08349,0.67937 -4.56795,1.4909 -5.52102,1.80339 -2.29247,0.75166 -3.06686,0.74405 -3.94704,-0.0388 -0.76117,-0.67696 -1.06224,-1.54335 -1.06385,-3.06137 -7.4e-4,-0.77641 0.16507,-1.30789 0.80901,-2.59194 0.44553,-0.88839 1.49465,-3.0508 2.3314,-4.80534 0.83674,-1.75455 1.63639,-3.33173 1.77699,-3.50485 0.14061,-0.17312 0.25565,-0.3883 0.25565,-0.47817 0,-0.15204 -20.89562,0.0452 -21.03836,0.19863 -0.0357,0.0383 0.14761,0.77094 0.40732,1.62798 0.25971,0.85705 1.6696,5.50599 3.13309,10.33098 1.46348,4.825 2.9674,9.82694 3.34203,11.11543 0.37462,1.28849 0.71486,2.34272 0.75607,2.34272 0.0412,0 0.38631,-0.63934 0.76687,-1.42074 1.31013,-2.69005 3.83189,-4.83718 6.62735,-5.6428 0.60981,-0.17574 1.8987,-0.37213 2.86422,-0.43642 3.23367,-0.21531 6.00335,0.78637 7.93394,2.86941 1.8859,2.03482 2.59158,4.17927 2.59627,7.88963 0.005,4.23742 -1.03234,6.31116 -3.15811,6.31116 -0.66296,0 -0.87769,-0.11427 -1.46368,-0.77892 -0.83716,-0.94954 -0.98549,-1.67924 -0.81613,-4.01504 0.17997,-2.48224 0.01,-3.4441 -0.77499,-4.3814 -0.91291,-1.09027 -2.00589,-1.49251 -4.04011,-1.48683 -1.39698,0.004 -1.82845,0.0876 -2.69647,0.52286 -1.24431,0.624 -1.73491,1.14639 -2.3133,2.4632 -0.57809,1.31611 -0.61405,3.75747 -0.0742,5.04072 0.45393,1.07911 2.13201,2.81595 3.48751,3.60963 l 1.04213,0.61019 6.86043,0.005 6.86043,0.005 -0.46146,-1.34581 z m 16.03258,1.29597 c 0.004,-0.0693 0.3076,-3.78911 0.63834,-7.82568 0.15274,-1.8642 0.27881,-3.44789 0.28015,-3.51932 0.001,-0.0714 -0.93305,-0.19175 -2.07643,-0.26738 -3.73286,-0.24691 -7.53666,0.49213 -9.08306,1.76476 -1.38739,1.14178 -1.72967,3.32494 -0.9648,6.15388 0.4425,1.63664 0.45446,1.79562 0.20249,2.69163 -0.14729,0.52374 -0.2687,0.97469 -0.2698,1.00211 -0.001,0.0274 2.53422,0.0498 5.63405,0.0498 3.09983,0 5.6374,-0.0224 5.63906,-0.0498 z M 130.29332,35.329 c -0.29489,-0.39311 -0.65602,-0.7555 -0.80251,-0.8053 -0.14649,-0.0498 -0.0562,0.12392 0.2007,0.38604 0.25687,0.26213 0.5879,0.79062 0.73563,1.17442 0.20138,0.52324 0.28531,0.60548 0.33546,0.32871 0.0368,-0.20302 -0.1744,-0.69076 -0.46928,-1.08387 z"
         id="path903" />
      <path
         style="fill:#453748;fill-opacity:1;stroke-width:0.191946"
         d="m 203.25152,127.97985 c 0.2387,-0.27414 0.39243,-0.49845 0.34161,-0.49845 -0.0508,0 -0.28769,0.22431 -0.5264,0.49845 -0.2387,0.27415 -0.39242,0.49845 -0.3416,0.49845 0.0508,0 0.28769,-0.2243 0.52639,-0.49845 z"
         id="path3548" />
      <path
         style="fill:#453748;fill-opacity:1;stroke-width:0.191946"
         d="m 199.74054,129.19747 c 0,-0.0431 0.12906,-0.13179 0.28678,-0.1971 0.16445,-0.0681 0.23863,-0.0347 0.17389,0.0784 -0.10852,0.18945 -0.46067,0.28022 -0.46067,0.11874 z"
         id="path3544" />
      <path
         style="fill:#453748;fill-opacity:1;stroke-width:0.191946"
         d="m 187.96029,172.79132 c -1.04175,-0.0355 -2.74642,-0.0355 -3.78817,0 -1.04174,0.0355 -0.1894,0.0646 1.89409,0.0646 2.08348,0 2.93582,-0.0291 1.89408,-0.0646 z"
         id="path3536" />
      <path
         id="path3534"
         style="fill:#ef3131;fill-opacity:1;stroke-width:0.191946"
         d="m 133.87724,92.27156 c -0.0771,-0.13451 0.41502,-0.21818 1.41739,-0.24102 l 1.53541,-0.035 -1.72421,-0.11456 c -1.69384,-0.11253 -1.73506,-0.12734 -2.34027,-0.84071 -0.77651,-0.9153 -0.88818,-1.76349 -0.80309,-6.10016 0.072,-3.67196 0.17849,-3.98316 1.63755,-4.78757 0.79843,-0.44019 0.93612,-0.4486 7.34369,-0.4486 7.10548,0 7.07062,-0.005 8.23276,1.16886 0.44533,0.44979 0.50279,0.46799 0.40031,0.12677 -0.10752,-0.35796 -0.0816,-0.35199 0.25524,0.0588 0.51575,0.62894 0.61008,1.59302 0.54054,5.5242 -0.0672,3.80166 -0.18275,4.23954 -1.37787,5.22343 l -0.67852,0.5586 -7.16046,0.0565 c -4.78394,0.0377 -7.19962,-0.0119 -7.27847,-0.14954 z m 14.66498,-14.71094 c -0.012,-0.0822 -0.019,-0.19439 -0.0154,-0.24922 0.004,-0.0548 -3.30668,-0.0997 -7.3561,-0.0997 -7.14794,0 -7.37746,-0.012 -7.87288,-0.41108 -1.25223,-1.00875 -1.27229,-1.09817 -1.27229,-5.67049 0,-4.57225 0.0198,-4.66041 1.27216,-5.66953 0.49685,-0.40033 0.71864,-0.41108 8.48885,-0.41108 4.38827,0 8.29228,0.0717 8.67558,0.15937 0.38329,0.0877 0.9742,0.42207 1.31312,0.74314 0.33892,0.32107 0.65789,0.5388 0.70883,0.48384 0.0509,-0.055 0.10979,1.80704 0.13078,4.13778 0.021,2.33074 0.0794,4.28215 0.1297,4.33647 0.0503,0.0543 0.0658,-1.75482 0.0344,-4.02032 -0.0314,-2.2655 -7.3e-4,-4.00989 0.0683,-3.87641 0.069,0.13348 0.14505,2.0341 0.16908,4.2236 0.0361,3.28726 -0.007,4.08521 -0.24506,4.57952 -0.37499,0.77738 -0.82811,1.20872 -1.66713,1.58696 -0.69655,0.31402 -2.52255,0.42602 -2.5619,0.15714 z M 91.14058,69.75997 c -1.23334,-0.36943 -2.15471,-2.45499 -1.71691,-3.88629 0.22811,-0.74576 4.68689,-10.02123 5.28047,-10.98481 0.20005,-0.32473 0.25977,-0.52131 0.13273,-0.43684 -0.54248,0.36072 -0.32408,-0.18216 2.07328,-5.15351 0.79322,-1.64488 2.56217,-5.32344 3.93101,-8.17457 1.36884,-2.85113 2.57335,-5.29603 2.6767,-5.4331 0.20829,-0.27626 0.59021,-0.34728 0.43793,-0.0814 -0.0529,0.0923 5.31734,0.18108 11.9338,0.19731 13.42609,0.0329 12.75625,-0.0379 13.48182,1.4262 0.32421,0.65422 0.34428,1.35273 0.34428,11.98315 v 11.28844 l -0.41946,0.67747 c -0.79121,1.27788 -1.25435,1.39402 -5.30898,1.33132 -3.46583,-0.0536 -3.6271,-0.074 -4.22485,-0.53396 -1.09072,-0.83935 -1.13402,-1.14284 -1.13402,-7.94912 0,-4.5154 -0.0589,-6.21082 -0.22174,-6.38656 -0.24072,-0.25973 -2.32079,-0.32723 -2.67084,-0.0867 -0.14716,0.10113 -0.23839,1.5971 -0.29466,4.83191 -0.0861,4.9485 -0.13353,5.24519 -1.19146,7.45252 -0.49851,1.04013 -2.30321,2.91421 -3.47041,3.60383 -0.61222,0.36172 -2.56834,1.12572 -4.34693,1.69778 -1.77859,0.57206 -5.64528,1.82951 -8.59266,2.79432 -6.00081,1.96436 -6.11874,1.99645 -6.6991,1.82261 z m 59.36784,-6.79687 c -0.0673,-0.11744 0.62993,-0.21448 1.79078,-0.24922 1.04552,-0.0313 -2.68676,-0.0569 -8.29395,-0.0569 -10.00818,0 -10.20426,-0.008 -10.70631,-0.41108 -1.25328,-1.0074 -1.2734,-1.09697 -1.2734,-5.67001 0,-4.57285 0.02,-4.66217 1.27307,-5.67001 0.50195,-0.40372 0.69344,-0.41097 10.70631,-0.40531 10.04171,0.006 10.20644,0.0122 10.94039,0.43054 0.40983,0.23362 0.85893,0.65413 0.99798,0.93448 0.13906,0.28034 0.30267,0.47636 0.36357,0.4356 0.0609,-0.0408 0.10647,1.82401 0.10125,4.14394 l -0.009,4.21805 0.10188,-4.08729 c 0.056,-2.24801 0.16239,-3.90785 0.23633,-3.68853 0.0739,0.21932 0.10404,2.06606 0.0669,4.10386 -0.0708,3.8837 -0.17522,4.42954 -1.00172,5.23658 -0.20695,0.20207 -0.6936,0.48951 -1.08146,0.63876 -0.80952,0.31151 -4.04649,0.3857 -4.21212,0.0965 z m 8.40383,-14.953 c 0.25408,-0.0836 -5.27571,-0.14199 -12.28843,-0.12966 -12.50572,0.022 -12.76281,0.0146 -13.39716,-0.38312 -1.05248,-0.65995 -1.2929,-1.42779 -1.29323,-4.13035 -1.7e-4,-1.42868 -0.0724,-2.34271 -0.18507,-2.34271 -0.34549,0 -0.21992,-3.02529 0.15736,-3.79133 0.3652,-0.74151 1.36801,-1.59712 1.85644,-1.58394 0.1832,0.005 0.10234,0.12137 -0.21212,0.30543 -0.7167,0.41952 -0.63155,0.51938 0.14454,0.1695 0.55789,-0.2515 2.47048,-0.28623 13.16617,-0.23905 11.74646,0.0518 12.54383,0.0774 13.0088,0.41797 1.10679,0.81059 1.16776,1.08314 1.16776,5.21987 0,3.59623 -0.0877,4.96262 -0.36703,5.71677 -0.15349,0.41442 -1.20466,0.9692 -1.78596,0.94258 l -0.43404,-0.0199 z" />
      <path
         style="fill:url(#linearGradient3662);fill-opacity:1;stroke-width:0.191946"
         d="m 56.73835,119.72524 c -1.47636,-0.47964 -3.13929,-2.28673 -4.11175,-4.4682 -1.5128,-3.39361 -2.05533,-7.44355 -1.88548,-14.07499 0.28164,-10.99552 2.75632,-19.31967 7.22172,-24.291844 2.58753,-2.88118 5.4043,-4.36837 8.64786,-4.56586 3.30382,-0.20117 5.64985,0.67065 7.61532,2.82995 2.10655,2.31429 3.06744,5.28745 3.06744,9.491214 0,6.77584 -2.90514,12.16716 -7.9133,14.68541 -1.14901,0.57776 -2.18974,0.88858 -4.58573,1.36956 -0.52093,0.10457 -0.53151,0.14447 -0.98102,3.69968 -1.43562,11.35454 -1.56392,12.04126 -2.56895,13.7503 -0.8844,1.5039 -2.73431,2.1504 -4.50611,1.57478 z m 1.04669,-5.85015 c 0.27338,-0.29496 0.53768,-0.97194 0.72004,-1.84426 0.40325,-1.92907 1.44329,-10.74581 1.31136,-11.11678 -0.0598,-0.16817 -0.37206,-0.36172 -0.69387,-0.43011 -1.6136,-0.34289 -1.97104,-0.77738 -1.97104,-2.39586 0,-1.72804 0.54512,-2.25477 2.09611,-2.0254 0.42702,0.0632 0.87541,0.0488 0.99643,-0.0319 0.2465,-0.16438 0.67423,-2.6893 0.97452,-5.75266 0.10954,-1.11735 0.35603,-3.03836 0.54777,-4.2689 0.3054,-1.96002 0.41679,-2.31091 0.89873,-2.8309 0.76686,-0.82742 2.10497,-0.97729 2.87449,-0.32195 l 0.53455,0.45523 -0.10978,2.50523 c -0.0604,1.37788 -0.19488,2.99871 -0.29889,3.60183 -0.31025,1.79907 -0.74246,6.23693 -0.62705,6.43842 0.18765,0.32759 1.6513,0.0151 2.91304,-0.62199 3.1172,-1.57389 4.7223,-4.95313 4.7223,-9.94191 0,-2.98731 -0.50396,-4.720154 -1.83534,-6.310724 -1.13107,-1.35126 -3.57518,-2.08526 -5.80766,-1.74414 -6.14534,0.93901 -10.33016,9.489254 -11.0573,22.591834 -0.16837,3.03407 -0.16792,4.49063 0.002,6.38015 0.53613,5.96173 2.2298,9.36935 3.80959,7.6648 z m 53.88736,5.83823 c -3.32308,-0.73255 -5.17709,-5.02367 -4.45922,-10.32089 0.22324,-1.64731 0.86384,-3.95544 1.44867,-5.21968 1.82256,-3.93984 5.62696,-7.8146 10.46849,-10.66211 0.86337,-0.50779 1.60998,-1.07546 1.65913,-1.26149 0.24071,-0.911 1.0709,-10.62489 1.10946,-12.981614 0.0205,-1.25612 0.0111,-1.28179 -0.53344,-1.45451 -1.19786,-0.3799 -4.74714,-0.41638 -6.91612,-0.0711 -4.35946,0.69403 -6.22487,2.29475 -6.43986,5.526124 -0.0662,0.99474 0.01,1.67516 0.30487,2.72258 0.55989,1.98887 0.5247,2.91793 -0.13758,3.63251 -2.16133,2.33199 -3.89405,-0.73003 -3.67846,-6.50051 0.0719,-1.92554 0.17972,-2.631274 0.56744,-3.715554 1.34653,-3.76553 4.29064,-5.96327 9.16625,-6.84247 2.83978,-0.51209 8.29313,-0.33003 10.68191,0.35661 2.59563,0.7461 3.23897,1.37017 3.23897,3.14193 0,1.41166 -0.32005,2.12645 -1.07202,2.39422 -0.7363,0.26219 -0.63485,-0.25169 -1.2784,6.475204 -1.53605,16.05612 -3.66749,25.45934 -6.98245,30.8042 -1.9523,3.14781 -4.49355,4.5616 -7.14764,3.97653 z m 2.7265,-4.85673 c 2.26149,-1.27833 3.98399,-5.77547 5.28388,-13.79531 0.4549,-2.80645 0.45402,-3.26867 -0.006,-3.26867 -0.57091,0 -3.02073,1.97636 -4.68637,3.78067 -2.0888,2.2627 -3.14097,4.12582 -3.7163,6.58059 -0.48366,2.06363 -0.43793,4.72865 0.0979,5.70742 0.64768,1.183 1.942,1.60859 3.02698,0.9953 z m -27.41127,-0.13161 c -4.25565,-0.43374 -7.18987,-2.90108 -8.0439,-6.76401 -0.34574,-1.56384 -0.3102,-5.02832 0.0656,-6.38939 0.48679,-1.76327 1.46178,-2.46795 2.60487,-1.88269 0.91693,0.46947 1.04963,1.01469 0.99429,4.0851 -0.0444,2.46298 -0.0133,2.76263 0.36555,3.52745 0.22774,0.45969 0.69718,1.0688 1.04321,1.35357 1.39803,1.15054 4.07141,1.70249 6.37673,1.31657 3.42714,-0.57373 5.26282,-2.73585 5.26185,-6.19759 -7.4e-4,-2.96432 -1.24302,-4.45154 -6.16631,-7.38267 -3.1635,-1.88344 -4.47296,-2.86438 -5.66772,-4.24577 -1.87038,-2.16254 -2.64022,-4.49924 -2.64501,-8.02843 -0.005,-3.657324 1.00873,-6.593254 3.02917,-8.773214 1.83317,-1.97793 4.05917,-2.98974 7.0529,-3.20583 4.95204,-0.35743 8.8596,2.49062 9.69376,7.06536 0.2608,1.43034 0.14716,5.309364 -0.19076,6.510964 -0.29608,1.05283 -1.11223,1.90983 -1.8188,1.90983 -0.85651,0 -1.12317,-0.18376 -1.53716,-1.05934 -0.34935,-0.73886 -0.37194,-1.017 -0.25475,-3.13568 0.14956,-2.703584 -0.024,-3.663264 -0.84487,-4.672024 -1.93893,-2.38268 -6.67956,-2.47968 -9.20341,-0.18831 -1.37142,1.2451 -2.10044,4.156934 -1.58541,6.332384 0.64742,2.73465 1.67737,3.73767 7.40299,7.20941 3.99925,2.42494 5.49957,4.08666 6.45111,7.14505 0.86088,2.76701 0.52308,7.08318 -0.77145,9.85707 -1.90719,4.08668 -6.20422,6.1634 -11.61244,5.61219 z"
         id="path863" />
    </g>
  </g>
</svg>
